<svg xmlns="http://www.w3.org/2000/svg" width="500" height="125" viewBox="0 0 500 125" fill="none" xmlns="http://www.w3.org/2000/svg">
<path fill-rule="evenodd" clip-rule="evenodd" d="M105 89.4751L105 89.5235C105 97.7336 86.4198 104.389 63.5 104.389C40.5802 104.389 22 97.7336 22 89.5235L22.0002 89.4751C22.0002 66.5553 40.5802 47.9751 63.5 47.9751C86.4198 47.9751 105 66.5553 105 89.4751ZM52.8655 79.3594C52.8655 83.2987 50.0785 86.4922 46.6405 86.4922C43.2026 86.4922 40.4155 83.2987 40.4155 79.3594C40.4155 75.42 43.2026 72.2266 46.6405 72.2266C50.0785 72.2266 52.8655 75.42 52.8655 79.3594ZM80.3593 86.4922C83.7972 86.4922 86.5843 83.2987 86.5843 79.3594C86.5843 75.42 83.7972 72.2266 80.3593 72.2266C76.9213 72.2266 74.1343 75.42 74.1343 79.3594C74.1343 83.2987 76.9213 86.4922 80.3593 86.4922Z" fill="#211D0D"/>
<path d="M61.946 46.4188C61.8484 46.4188 61.75 46.3951 61.6595 46.3466C61.4157 46.2154 61.2918 45.9353 61.3589 45.6667L63.5924 36.7355H53.4711C53.2311 36.7355 53.0136 36.5936 52.9169 36.3741C52.8203 36.1542 52.8628 35.8983 53.0248 35.7213L66.3428 21.1964C66.5302 20.9922 66.832 20.941 67.0759 21.0722C67.3197 21.2034 67.4436 21.4836 67.3765 21.7522L65.143 30.6834H75.2643C75.5043 30.6834 75.7218 30.8253 75.8185 31.0448C75.9152 31.2647 75.8726 31.5206 75.7106 31.6976L62.3926 46.2225C62.2746 46.3508 62.1115 46.4188 61.946 46.4188Z" fill="#EFD358"/>
<path d="M123.4 55.6H131.32V94H123.4V55.6ZM156.948 63.952C165.492 63.952 169.764 68.8 169.764 82.48V94H161.892V82.48C161.892 75.52 160.164 72.112 154.068 72.112C148.356 72.112 145.716 76.144 145.716 82.48V94H137.556V64.72H145.716L144.276 74.944H145.236C146.436 64.48 150.66 63.952 156.948 63.952ZM197.388 62.32C190.86 62.272 188.796 62.272 188.172 64.72H197.388V72.88H187.836V94H179.916V72.88H174.588V64.72H180.012C180.444 58.288 183.036 55.6 197.388 55.6V62.32ZM215.528 94.72C207.272 94.72 200.744 87.808 200.744 79.216C200.744 70.816 207.272 63.856 215.528 63.856C223.736 63.856 230.216 70.816 230.216 79.216C230.216 87.808 223.736 94.72 215.528 94.72ZM215.48 86.848C219.896 86.848 222.296 83.392 222.296 79.264C222.296 75.184 219.896 71.728 215.48 71.728C211.16 71.728 208.664 75.184 208.664 79.264C208.664 83.392 211.16 86.848 215.48 86.848ZM242.641 74.944C243.841 65.392 247.825 64.72 255.313 64.72V73.792C246.577 71.536 243.121 76.144 243.121 82.48V94H235.009V64.672H243.121L241.681 74.944H242.641ZM260.134 94V64.672H268.294L266.854 74.944H268.15C270.214 65.104 276.55 63.952 280.486 63.952C286.198 63.952 290.326 66.592 289.942 74.944H291.238C293.302 65.104 299.638 63.952 303.574 63.952C310.198 63.952 314.47 67.36 314.47 82.48V94H306.598V82.48C306.598 75.52 304.87 72.112 299.734 72.112C294.022 72.112 291.382 76.144 291.382 82.48V94H283.51V82.48C283.51 75.52 281.782 72.112 276.646 72.112C270.934 72.112 268.294 76.144 268.294 82.48V94H260.134ZM333.019 64.624C343.627 64.624 348.619 68.464 348.619 79.168V94H340.795L341.947 83.2H341.275C340.363 91.168 336.571 94.672 329.899 94.672C323.083 94.672 319.291 92.08 319.291 85.936C319.291 81.184 323.083 76.672 331.435 76.672H340.411C339.595 73.936 337.579 72.784 333.019 72.784C330.187 72.784 328.363 73.648 326.299 75.952L319.915 71.776C323.707 66.64 328.027 64.624 333.019 64.624ZM331.435 86.464C337.195 86.464 339.691 85.504 340.411 81.328H331.435C328.555 81.328 327.547 82.336 327.547 83.776C327.547 85.12 328.555 86.464 331.435 86.464ZM374.234 64.72H382.395L375.723 94H359.211L351.963 64.72H360.123L366.219 89.344H368.619L374.234 64.72ZM400.543 94.72C392.287 94.72 385.759 87.808 385.759 79.216C385.759 70.816 392.287 63.856 400.543 63.856C408.751 63.856 415.231 70.816 415.231 79.216C415.231 87.808 408.751 94.72 400.543 94.72ZM400.495 86.848C404.911 86.848 407.311 83.392 407.311 79.264C407.311 75.184 404.911 71.728 400.495 71.728C396.175 71.728 393.679 75.184 393.679 79.264C393.679 83.392 396.175 86.848 400.495 86.848ZM427.657 74.944C428.857 65.392 432.841 64.72 440.329 64.72V73.792C431.593 71.536 428.137 76.144 428.137 82.48V94H420.025V64.672H428.137L426.697 74.944H427.657ZM451.34 81.808C452.108 84.784 454.652 86.896 458.588 86.896C461.804 86.896 464.684 85.936 467.036 83.2L472.22 86.608C469.196 92.56 463.82 94.72 458.588 94.72C450.476 94.72 443.228 88 443.228 79.648C443.228 71.392 450.476 64.624 458.588 64.624C466.988 64.624 472.988 71.152 472.892 81.808H451.34ZM458.588 72.304C454.94 72.304 452.492 74.464 451.532 77.056H465.308C464.3 73.84 461.324 72.304 458.588 72.304Z" fill="#211D0D"/>
</svg>
