<svg width="640" height="644" viewBox="0 0 640 644" fill="none" xmlns="http://www.w3.org/2000/svg">
<path fill-rule="evenodd" clip-rule="evenodd" d="M639.998 528.501C639.999 528.625 640 528.75 640 528.874C640 592.181 496.731 643.501 320 643.501C143.269 643.501 0 592.181 0 528.874C0 528.75 0.000553648 528.625 0.00166011 528.501H0C0 351.77 143.269 208.501 320 208.501C496.731 208.501 640 351.77 640 528.501H639.998ZM238 450.501C238 480.877 216.51 505.501 190 505.501C163.49 505.501 142 480.877 142 450.501C142 420.125 163.49 395.501 190 395.501C216.51 395.501 238 420.125 238 450.501ZM450 505.501C476.51 505.501 498 480.877 498 450.501C498 420.125 476.51 395.501 450 395.501C423.49 395.501 402 420.125 402 450.501C402 480.877 423.49 505.501 450 505.501Z" fill="white"/>
<path d="M308.016 196.5C307.264 196.5 306.505 196.318 305.808 195.944C303.927 194.932 302.972 192.772 303.49 190.701L320.712 121.834H242.668C240.818 121.834 239.14 120.74 238.395 119.047C237.649 117.352 237.978 115.378 239.227 114.013L341.92 2.01406C343.365 0.439532 345.692 0.0452939 347.572 1.05702C349.453 2.06875 350.408 4.22889 349.89 6.30018L332.668 75.1673H410.712C412.562 75.1673 414.24 76.2611 414.985 77.9541C415.731 79.6494 415.402 81.6227 414.153 82.9876L311.46 194.987C310.551 195.976 309.293 196.5 308.016 196.5Z" fill="#EFD358"/>
</svg>
