<svg width="1200" height="600" viewBox="0 0 1200 600" fill="none" xmlns="http://www.w3.org/2000/svg">
<rect width="1200" height="600" fill="#100E06"/>
<path fill-rule="evenodd" clip-rule="evenodd" d="M464.976 359.606C464.976 359.641 464.977 359.677 464.977 359.713C464.977 378.011 423.568 392.843 372.488 392.843C321.408 392.843 280 378.011 280 359.713C280 359.677 280 359.641 280 359.606C280 308.526 321.408 267.117 372.488 267.117C423.568 267.117 464.976 308.526 464.976 359.606ZM348.788 337.061C348.788 345.84 342.577 352.957 334.915 352.957C327.253 352.957 321.042 345.84 321.042 337.061C321.042 328.282 327.253 321.165 334.915 321.165C342.577 321.165 348.788 328.282 348.788 337.061ZM410.061 352.957C417.723 352.957 423.935 345.84 423.935 337.061C423.935 328.282 417.723 321.165 410.061 321.165C402.4 321.165 396.188 328.282 396.188 337.061C396.188 345.84 402.4 352.957 410.061 352.957Z" fill="#FDFBEE"/>
<path d="M369.025 263.649C368.807 263.649 368.588 263.596 368.386 263.488C367.843 263.196 367.567 262.572 367.716 261.973L372.694 242.069H350.137C349.603 242.069 349.118 241.752 348.902 241.263C348.687 240.773 348.782 240.203 349.143 239.808L378.824 207.438C379.241 206.983 379.914 206.869 380.457 207.161C381.001 207.453 381.277 208.078 381.127 208.676L376.15 228.581H398.706C399.241 228.581 399.726 228.897 399.942 229.386C400.157 229.876 400.062 230.447 399.701 230.841L370.02 263.212C369.757 263.498 369.394 263.649 369.025 263.649Z" fill="#EFD358"/>
<path d="M840.649 292.026L856.096 293.613C855.778 295.094 855.038 296.152 852.181 296.575V387.882C852.181 388.94 847.42 391.268 842.976 391.268H840.649V292.026ZM827.318 299.432L841.813 302.183C841.495 303.558 840.331 304.51 838.004 304.722C835.253 317.736 830.809 329.797 824.249 337.944L822.662 337.203C825.413 326.835 827.106 312.446 827.318 299.432ZM822.662 349.265C829.751 347.889 848.055 343.234 865.83 338.155L866.147 339.425C858.635 344.398 846.997 351.592 830.598 360.374C830.174 361.643 829.116 362.807 827.953 363.23L822.662 349.265ZM831.444 317.63H852.71L858.106 309.06C858.106 309.06 864.137 315.091 867.522 318.899C867.311 320.063 866.253 320.592 864.772 320.592H831.444V317.63Z" fill="#FDFBEE"/>
<path d="M840.649 292.026L856.096 293.613C855.778 295.094 855.038 296.152 852.181 296.575V387.882C852.181 388.94 847.42 391.268 842.976 391.268H840.649V292.026ZM827.318 299.432L841.813 302.183C841.495 303.558 840.331 304.51 838.004 304.722C835.253 317.736 830.809 329.797 824.249 337.944L822.662 337.203C825.413 326.835 827.106 312.446 827.318 299.432Z" fill="#FDFBEE"/>
<path d="M856.836 329.797C857.669 328.688 858.364 327.578 858.924 326.468L858.866 326.577L858.952 326.411C864.101 317.101 869.815 304.017 873.13 292.026L884.027 294.777C882.405 300.349 880.959 304.793 879.69 308.108H920C919.929 318.688 919.647 329.938 919.154 341.858C918.66 353.708 917.99 364.183 917.143 373.281C916.65 378.713 915.239 382.592 912.911 384.92C910.654 387.318 907.268 388.587 902.754 388.729C899.157 388.799 895.101 388.658 890.587 388.305L888.471 376.773C892.844 377.267 896.547 377.478 899.58 377.408C901.908 377.337 903.46 376.667 904.235 375.398C905.082 374.128 905.717 371.659 906.14 367.991C906.916 360.726 907.515 352.721 907.939 343.974C908.432 335.228 908.679 327.011 908.679 319.323H874.928C872.53 324.683 869.497 330.291 865.829 336.145L856.836 329.797Z" fill="#FDFBEE"/>
<path fill-rule="evenodd" clip-rule="evenodd" d="M898.879 347.014C893.254 345.892 888.834 340.74 887.956 334.244C887.206 334.094 886.435 334.016 885.648 334.016C878.252 334.016 872.257 340.899 872.257 349.39C872.257 357.881 878.252 364.765 885.648 364.765C893.043 364.765 899.038 357.881 899.038 349.39C899.038 348.582 898.984 347.789 898.879 347.014Z" fill="#FDFBEE"/>
<path d="M746.63 338.142C746.207 339.623 744.302 340.787 740.493 339.94L743.773 338.988C738.272 348.722 726.951 362.688 718.593 369.459L718.381 368.189H725.47C724.941 375.701 722.93 380.991 719.545 382.472L712.879 366.496C712.879 366.496 715.842 365.967 716.9 365.121C721.767 359.513 728.22 342.374 729.913 332.851L746.63 338.142ZM716.053 367.66C723.248 367.131 739.859 365.333 756.575 363.322L756.787 364.592C749.91 368.083 737.108 374.22 721.343 380.145L716.053 367.66ZM744.408 346.606C770.118 363.005 758.162 385.012 748.217 374.431C748.852 365.438 746.101 354.964 743.138 347.135L744.408 346.606ZM754.142 322.06C754.142 322.06 761.336 327.773 765.568 331.793C765.251 332.957 764.193 333.486 762.712 333.486H713.408L712.562 330.418H747.794L754.142 322.06ZM748.429 298.889C748.429 298.889 755.623 304.602 759.855 308.623C759.644 309.787 758.586 310.316 756.998 310.316H717.852L717.005 307.247H742.08L748.429 298.889Z" fill="#FDFBEE"/>
<path fill-rule="evenodd" clip-rule="evenodd" d="M810.032 310.435C809.961 320.663 809.749 331.984 809.397 344.398C809.044 356.812 808.55 366.581 807.916 373.705C807.563 377.372 806.928 380.229 806.011 382.275C805.094 384.32 803.648 385.801 801.673 386.718C799.769 387.706 797.159 388.27 793.844 388.411C789.471 388.552 785.45 388.376 781.783 387.882L779.243 375.08C783.264 375.785 786.755 376.138 789.718 376.138C792.045 376.138 793.632 375.574 794.479 374.445C795.325 373.246 795.925 370.919 796.277 367.462C796.842 362.031 797.23 355.154 797.441 346.831C797.723 338.438 797.864 330.502 797.864 323.026H786.226V323.026H774.271L774.271 323.026H763.161V310.435H774.694L775.117 292.026H786.967C786.967 296.963 786.861 303.1 786.649 310.435H810.032Z" fill="#FDFBEE"/>
<path fill-rule="evenodd" clip-rule="evenodd" d="M792.085 345.943C786.46 344.821 782.039 339.669 781.161 333.172C780.411 333.023 779.64 332.945 778.853 332.945C771.458 332.945 765.463 339.828 765.463 348.319C765.463 356.81 771.458 363.693 778.853 363.693C786.248 363.693 792.244 356.81 792.244 348.319C792.244 347.511 792.189 346.717 792.085 345.943Z" fill="#FDFBEE"/>
<path d="M652.529 344.596C652.406 344.596 652.281 344.567 652.167 344.506C651.858 344.343 651.702 343.993 651.787 343.657L654.612 332.505H641.81C641.507 332.505 641.231 332.328 641.109 332.054C640.987 331.779 641.041 331.459 641.246 331.238L658.09 313.101C658.327 312.846 658.709 312.782 659.018 312.946C659.326 313.11 659.483 313.46 659.398 313.795L656.573 324.948H669.374C669.678 324.948 669.953 325.125 670.075 325.399C670.197 325.674 670.144 325.993 669.939 326.214L653.094 344.351C652.945 344.512 652.739 344.596 652.529 344.596Z" fill="#EFD358"/>
<path fill-rule="evenodd" clip-rule="evenodd" d="M620.135 355.957H652.762L647.472 362.305C649.517 363.857 651.88 365.832 654.561 368.23C657.241 370.628 659.533 372.78 661.438 374.684L668.315 365.268C666.199 363.293 662.39 360.189 656.888 355.957H691.314C692.227 355.957 692.967 355.217 692.967 354.304V302.911C692.967 301.998 692.227 301.258 691.314 301.258H659.004C660.203 297.731 660.909 295.509 661.12 294.592L646.837 292.582C646.202 295.121 645.321 298.013 644.192 301.258H620.135C619.222 301.258 618.482 301.998 618.482 302.911V354.304C618.482 355.217 619.222 355.957 620.135 355.957ZM680.72 310.872H630.464V346.25H680.72V310.872Z" fill="#FDFBEE"/>
<path d="M681.54 363.892L681.548 363.888L681.602 363.981L681.54 363.892Z" fill="#FDFBEE"/>
<path d="M671.066 364.95C670.854 369.182 670.748 372.215 670.748 374.049C670.678 376.095 670.184 377.435 669.267 378.07C668.421 378.634 666.622 379.022 663.871 379.234C661.473 379.445 659.004 379.551 656.465 379.551C653.996 379.551 651.492 379.445 648.953 379.234C646.837 379.092 645.391 378.634 644.615 377.858C643.91 377.012 643.557 375.601 643.557 373.626V359.978H630.967V376.165C630.967 379.833 631.39 382.619 632.237 384.524C633.083 386.428 634.423 387.768 636.257 388.544C638.091 389.39 640.771 389.955 644.298 390.237C648.53 390.59 652.304 390.766 655.619 390.766C659.075 390.766 662.848 390.59 666.939 390.237C670.607 389.955 673.393 389.496 675.298 388.861C677.273 388.297 678.825 387.239 679.953 385.687C681.082 384.206 681.822 381.984 682.175 379.022C682.598 376.342 683.021 372.78 683.445 368.336L671.066 364.95Z" fill="#FDFBEE"/>
<path d="M693.191 383.73C705.041 392.3 714.458 367.542 681.342 360.136L680.389 360.877C686.209 366.484 692.028 375.689 693.191 383.73Z" fill="#FDFBEE"/>
<path d="M621.218 359.806C625.767 372.608 621.641 381.495 616.457 384.457C612.965 386.573 608.31 385.833 606.935 382.236C605.877 378.744 607.993 375.887 611.061 374.3C615.187 372.29 619.737 366.365 619.631 359.806H621.218Z" fill="#FDFBEE"/>
<path d="M562.773 308.748C574.411 317.001 584.78 294.042 554.838 290.974L553.992 291.608C558.012 295.841 561.927 302.612 562.773 308.748Z" fill="#FDFBEE"/>
<path d="M595.677 342.816C591.657 339.008 584.78 333.4 584.78 333.4L578.749 341.547H538.968L539.814 344.509H592.821C594.196 344.509 595.36 343.98 595.677 342.816Z" fill="#FDFBEE"/>
<path d="M595.783 327.687C591.763 323.772 584.886 318.165 584.886 318.165L578.855 326.311H538.333L539.179 329.38H592.821C594.408 329.38 595.466 328.851 595.783 327.687Z" fill="#FDFBEE"/>
<path d="M602.449 312.875C598.111 308.748 590.705 302.718 590.705 302.718L584.145 311.605H531.773L532.62 314.567H599.592C601.073 314.567 602.131 314.038 602.449 312.875Z" fill="#FDFBEE"/>
<path d="M534.015 294.571C531.899 303.035 529.571 310.547 527.032 317.107V390.11H514.653V341.229C512.184 344.897 509.786 348.212 507.459 351.175L501.851 337.421C505.801 331.989 509.645 324.936 513.384 316.26C517.192 307.584 519.908 299.438 521.53 291.82L534.015 294.571Z" fill="#FDFBEE"/>
<path d="M571.496 354.937H587.642C590.404 354.937 592.642 357.176 592.642 359.937V385.149C592.642 387.911 590.404 390.149 587.642 390.149H566.885L586.223 369.283C586.497 368.986 586.57 368.557 586.406 368.188C586.242 367.82 585.873 367.582 585.466 367.582H570.869C569.565 367.582 568.61 366.355 568.93 365.092L571.496 354.937Z" fill="#FDFBEE"/>
<path fill-rule="evenodd" clip-rule="evenodd" d="M538.915 359.937C538.915 357.176 541.153 354.937 543.915 354.937H567.3L547.748 376.035C547.473 376.332 547.401 376.761 547.565 377.13C547.729 377.499 548.098 377.737 548.505 377.737H563.102C564.405 377.737 565.36 378.963 565.041 380.227L562.533 390.149H543.915C541.153 390.149 538.915 387.911 538.915 385.149V359.937ZM562.788 387.174L562.798 387.174L562.808 387.174H562.788Z" fill="#FDFBEE"/>
<path d="M508.82 208.162H518.033V252.627H508.82V208.162Z" fill="#FDFBEE"/>
<path d="M547.844 217.833C557.782 217.833 562.752 223.447 562.752 239.288V252.627H553.595V239.288C553.595 231.228 551.585 227.282 544.494 227.282C537.85 227.282 534.779 231.951 534.779 239.288V252.627H525.287V218.722H534.779L533.104 230.561H534.22C535.616 218.444 540.53 217.833 547.844 217.833Z" fill="#FDFBEE"/>
<path d="M594.883 215.943C587.29 215.888 584.889 215.888 584.163 218.722H594.883V228.171H583.772V252.627H574.56V228.171H568.362V218.722H574.671C575.174 211.274 578.189 208.162 594.883 208.162V215.943Z" fill="#FDFBEE"/>
<path d="M615.984 253.461C606.381 253.461 598.787 245.457 598.787 235.508C598.787 225.781 606.381 217.722 615.984 217.722C625.532 217.722 633.069 225.781 633.069 235.508C633.069 245.457 625.532 253.461 615.984 253.461ZM615.928 244.346C621.065 244.346 623.857 240.344 623.857 235.564C623.857 230.839 621.065 226.837 615.928 226.837C610.903 226.837 608 230.839 608 235.564C608 240.344 610.903 244.346 615.928 244.346Z" fill="#FDFBEE"/>
<path d="M647.523 230.561C648.919 219.5 653.553 218.722 662.263 218.722V229.227C652.101 226.615 648.081 231.951 648.081 239.288V252.627H638.645V218.667H648.081L646.406 230.561H647.523Z" fill="#FDFBEE"/>
<path d="M667.871 252.627V218.667H677.363L675.688 230.561H677.195C679.596 219.167 686.966 217.833 691.545 217.833C698.189 217.833 702.991 220.89 702.544 230.561H704.051C706.452 219.167 713.822 217.833 718.401 217.833C726.106 217.833 731.075 221.779 731.075 239.288V252.627H721.918V239.288C721.918 231.228 719.908 227.282 713.934 227.282C707.29 227.282 704.219 231.951 704.219 239.288V252.627H695.062V239.288C695.062 231.228 693.052 227.282 687.078 227.282C680.434 227.282 677.363 231.951 677.363 239.288V252.627H667.871Z" fill="#FDFBEE"/>
<path d="M752.65 218.611C764.99 218.611 770.797 223.058 770.797 235.452V252.627H761.696L763.036 240.121H762.254C761.193 249.348 756.782 253.405 749.021 253.405C741.093 253.405 736.682 250.404 736.682 243.29C736.682 237.787 741.093 232.562 750.808 232.562H761.249C760.3 229.394 757.955 228.06 752.65 228.06C749.356 228.06 747.235 229.061 744.834 231.728L737.408 226.893C741.819 220.946 746.844 218.611 752.65 218.611ZM750.808 243.901C757.508 243.901 760.411 242.789 761.249 237.954H750.808C747.458 237.954 746.285 239.121 746.285 240.788C746.285 242.345 747.458 243.901 750.808 243.901Z" fill="#FDFBEE"/>
<path d="M800.593 218.722H810.085L802.324 252.627H783.117L774.686 218.722H784.178L791.269 247.236H794.061L800.593 218.722Z" fill="#FDFBEE"/>
<path d="M831.196 253.461C821.592 253.461 813.999 245.457 813.999 235.508C813.999 225.781 821.592 217.722 831.196 217.722C840.743 217.722 848.281 225.781 848.281 235.508C848.281 245.457 840.743 253.461 831.196 253.461ZM831.14 244.346C836.277 244.346 839.068 240.344 839.068 235.564C839.068 230.839 836.277 226.837 831.14 226.837C826.115 226.837 823.212 230.839 823.212 235.564C823.212 240.344 826.115 244.346 831.14 244.346Z" fill="#FDFBEE"/>
<path d="M862.735 230.561C864.131 219.5 868.765 218.722 877.475 218.722V229.227C867.313 226.615 863.293 231.951 863.293 239.288V252.627H853.857V218.667H863.293L861.618 230.561H862.735Z" fill="#FDFBEE"/>
<path d="M890.283 238.509C891.176 241.956 894.136 244.401 898.714 244.401C902.455 244.401 905.805 243.29 908.541 240.121L914.571 244.068C911.053 250.96 904.8 253.461 898.714 253.461C889.278 253.461 880.847 245.68 880.847 236.008C880.847 226.448 889.278 218.611 898.714 218.611C908.485 218.611 915.464 226.17 915.353 238.509H890.283ZM898.714 227.504C894.471 227.504 891.623 230.005 890.506 233.007H906.531C905.358 229.283 901.897 227.504 898.714 227.504Z" fill="#FDFBEE"/>
</svg>
