<svg width="500" height="500" viewBox="0 0 500 500" fill="none" xmlns="http://www.w3.org/2000/svg">
<path fill-rule="evenodd" clip-rule="evenodd" d="M498.665 410.575C498.666 410.672 498.666 410.769 498.666 410.865C498.666 460.093 387.26 500 249.833 500C112.406 500 1 460.093 1 410.865C1 410.769 1.00043 410.672 1.00129 410.575C1.00129 273.149 112.406 161.742 249.833 161.742C387.26 161.742 498.665 273.149 498.665 410.575ZM186.07 349.922C186.07 373.542 169.358 392.69 148.744 392.69C128.13 392.69 111.419 373.542 111.419 349.922C111.419 326.302 128.13 307.153 148.744 307.153C169.358 307.153 186.07 326.302 186.07 349.922ZM350.921 392.69C371.535 392.69 388.246 373.542 388.246 349.922C388.246 326.302 371.535 307.153 350.921 307.153C330.307 307.153 313.596 326.302 313.596 349.922C313.596 373.542 330.307 392.69 350.921 392.69Z" fill="#EFD358"/>
<path d="M240.515 152.411C239.931 152.411 239.34 152.269 238.798 151.979C237.336 151.192 236.593 149.512 236.996 147.902L250.387 94.35H189.7C188.261 94.35 186.957 93.4995 186.377 92.183C185.798 90.8647 186.053 89.3303 187.024 88.2689L266.879 1.17734C268.003 -0.0470204 269.812 -0.353583 271.275 0.433144C272.737 1.21987 273.479 2.89962 273.077 4.51027L259.685 58.0619H320.372C321.811 58.0619 323.116 58.9124 323.695 60.2289C324.275 61.5472 324.02 63.0816 323.048 64.143L243.193 151.235C242.486 152.004 241.508 152.411 240.515 152.411Z" fill="#EFD358"/>
</svg>
